<svg xmlns="http://www.w3.org/2000/svg" width="18" height="18" viewBox="0 0 18 18" fill="none">
  <g clip-path="url(#clip0_92_3)">
    <path fill-rule="evenodd" clip-rule="evenodd" d="M9 0.71759C4.31058 0.71759 0.507935 4.51939 0.507935 9.20965C0.507935 12.9618 2.94117 16.1449 6.31533 17.2679C6.73959 17.3466 6.8954 17.0837 6.8954 16.8594C6.8954 16.6569 6.88753 15.9879 6.88387 15.2783C4.52137 15.792 4.02286 14.2764 4.02286 14.2764C3.63656 13.2948 3.07997 13.0338 3.07997 13.0338C2.30934 12.5067 3.13804 12.5177 3.13804 12.5177C3.99065 12.5775 4.43981 13.3928 4.43981 13.3928C5.19722 14.6908 6.42642 14.3156 6.91101 14.0988C6.98723 13.5499 7.20731 13.1751 7.45017 12.9631C5.56397 12.7486 3.58101 12.0203 3.58101 8.7664C3.58101 7.83926 3.91289 7.08172 4.45612 6.48687C4.36781 6.27312 4.07714 5.4094 4.53825 4.23968C4.53825 4.23968 5.25122 4.01145 6.87403 5.11015C7.55156 4.92186 8.27817 4.82722 9 4.82398C9.7214 4.82722 10.4484 4.92158 11.1272 5.10987C12.7481 4.01117 13.4602 4.2394 13.4602 4.2394C13.9224 5.40898 13.6318 6.27284 13.5436 6.48659C14.0881 7.08143 14.4176 7.83898 14.4176 8.76612C14.4176 12.0278 12.431 12.7458 10.54 12.9562C10.8447 13.2197 11.1161 13.7367 11.1161 14.5288C11.1161 15.665 11.1063 16.5795 11.1063 16.8592C11.1063 17.0852 11.2593 17.35 11.6896 17.2666C15.0618 16.1425 17.4922 12.9604 17.4922 9.20965C17.4921 4.51967 13.6898 0.71759 9 0.71759Z" fill="#F9F9F9"/>
    <path d="M3.72428 12.9102C3.70558 12.9524 3.63921 12.965 3.57874 12.9362C3.51686 12.9086 3.48241 12.8511 3.50238 12.8088C3.52066 12.7652 3.58718 12.7532 3.64863 12.7823C3.7105 12.81 3.74566 12.8681 3.72414 12.9103L3.72428 12.9102ZM4.06825 13.2939C4.02789 13.3315 3.94872 13.314 3.895 13.2546C3.83932 13.1955 3.82891 13.1163 3.87011 13.0782C3.91202 13.0408 3.9888 13.0585 4.04449 13.1176C4.09989 13.1775 4.11086 13.256 4.06839 13.2941L4.06825 13.2939ZM4.40322 13.7829C4.35119 13.8192 4.26597 13.7853 4.21338 13.7098C4.16135 13.6341 4.16135 13.5434 4.21478 13.5073C4.26724 13.471 4.35119 13.5037 4.40463 13.5786C4.45638 13.6552 4.45638 13.746 4.40322 13.7829ZM4.8618 14.2555C4.81539 14.3069 4.71611 14.2931 4.64355 14.2232C4.56944 14.1547 4.54877 14.0572 4.59532 14.0061C4.64257 13.9546 4.74227 13.9689 4.81525 14.0384C4.88936 14.1067 4.91172 14.2043 4.86208 14.2554L4.8618 14.2555ZM5.49461 14.5299C5.47394 14.5964 5.3786 14.6266 5.28227 14.5982C5.18622 14.5691 5.12336 14.4914 5.14305 14.4241C5.16274 14.3571 5.25878 14.3257 5.35568 14.3559C5.45172 14.3849 5.51458 14.4622 5.49461 14.5299ZM6.18972 14.5807C6.19211 14.6507 6.11055 14.7086 6.00972 14.71C5.90805 14.7124 5.82578 14.6556 5.8248 14.5867C5.8248 14.516 5.90468 14.4587 6.00621 14.4568C6.10703 14.4549 6.18986 14.5112 6.18986 14.5805L6.18972 14.5807ZM6.83632 14.4707C6.84841 14.5389 6.77824 14.6091 6.67797 14.6278C6.57953 14.646 6.48813 14.6036 6.47547 14.5359C6.46338 14.4659 6.53482 14.3957 6.63325 14.3776C6.73366 14.3603 6.82366 14.4014 6.83632 14.4707Z" fill="#F9F9F9"/>
  </g>
  <defs>
    <clipPath id="clip0_92_3">
      <rect width="18" height="18" fill="white"/>
    </clipPath>
  </defs>
</svg>